<?xml version="1.0" standalone="no"?><!DOCTYPE svg PUBLIC "-//W3C//DTD SVG 1.1//EN" "http://www.w3.org/Graphics/SVG/1.1/DTD/svg11.dtd"><svg t="1697442957411" class="icon" viewBox="0 0 1570 1024" version="1.1" xmlns="http://www.w3.org/2000/svg" p-id="6729" width="459.9609375" height="300" xmlns:xlink="http://www.w3.org/1999/xlink"><path d="M1399.466667 512H730.453333l-15.36 29.013333h651.946667c63.146667 0 114.346667 42.666667 114.346667 95.573334v22.186666c0 52.906667-51.2 95.573333-114.346667 95.573334H604.16l-15.36 30.72H1399.466667c66.56 0 119.466667-54.613333 119.466666-122.88v-29.013334c0-66.56-52.906667-121.173333-119.466666-121.173333zM382.293333 756.053333l-15.36 29.013334h192.853334l15.36-29.013334H382.293333z m303.786667-215.04l15.36-29.013333H508.586667l-15.36 29.013333h192.853333zM170.666667 785.066667h167.253333l15.36-29.013334h-150.186667c-8.533333 0-18.773333-1.706667-27.306666-3.413333L160.426667 785.066667h10.24z m-80.213334-124.586667v-22.186667c0-52.906667 51.2-95.573333 114.346667-95.573333h54.613333L273.066667 512h-102.4c-66.56 0-119.466667 54.613333-119.466667 122.88v29.013333c0 54.613333 35.84 100.693333 83.626667 116.053334l17.066666-34.133334c-35.84-15.36-61.44-47.786667-61.44-85.333333z m375.466667-119.466667l15.36-29.013333H302.08l-15.36 29.013333h179.2z" fill="#5470C6" p-id="6730"></path><path d="M938.666667 546.133333H711.68l-110.933333 204.8h226.986666L938.666667 546.133333z m-738.986667 0C136.533333 546.133333 85.333333 587.093333 85.333333 638.293333v22.186667c0 35.84 25.6 68.266667 63.146667 81.92L256 546.133333h-56.32z m83.626667 0l-109.226667 203.093334c8.533333 1.706667 17.066667 1.706667 25.6 1.706666h151.893333l110.933334-204.8H283.306667z m206.506666 0l-110.933333 204.8h192.853333L682.666667 546.133333H489.813333z" fill="#5182E4" p-id="6731"></path><path d="M657.066667 160.426667v34.133333h-66.56v35.84c8.533333-10.24 18.773333-15.36 32.426666-15.36 15.36 0 25.6 3.413333 34.133334 11.946667s11.946667 23.893333 11.946666 47.786666V307.2c0 15.36 0 27.306667-1.706666 34.133333s-5.12 13.653333-10.24 20.48-11.946667 10.24-20.48 13.653334c-8.533333 3.413333-18.773333 5.12-30.72 5.12-13.653333 0-25.6-1.706667-35.84-6.826667-10.24-5.12-18.773333-11.946667-22.186667-22.186667-5.12-10.24-6.826667-23.893333-6.826667-44.373333v-11.946667h54.613334v11.946667c0 13.653333 0 23.893333 1.706666 29.013333 1.706667 5.12 5.12 8.533333 10.24 8.533334 3.413333 0 5.12 0 6.826667-1.706667 1.706667-1.706667 1.706667-3.413333 3.413333-5.12s0-10.24 0-25.6v-42.666667c0-8.533333 0-13.653333-1.706666-17.066666-1.706667-3.413333-5.12-5.12-8.533334-5.12-1.706667 0-5.12 0-6.826666 1.706666-1.706667 1.706667-3.413333 3.413333-3.413334 5.12v11.946667h-52.906666l1.706666-109.226667h110.933334zM812.373333 232.106667v71.68c0 17.066667-1.706667 29.013333-3.413333 35.84-1.706667 6.826667-5.12 13.653333-10.24 20.48s-11.946667 11.946667-20.48 13.653333c-8.533333 3.413333-17.066667 3.413333-27.306667 3.413333-13.653333 0-23.893333-1.706667-32.426666-5.12s-15.36-6.826667-20.48-13.653333-8.533333-13.653333-10.24-20.48-3.413333-18.773333-3.413334-32.426667v-75.093333c0-20.48 1.706667-34.133333 5.12-44.373333 3.413333-10.24 10.24-17.066667 20.48-23.893334 10.24-5.12 22.186667-8.533333 37.546667-8.533333 11.946667 0 22.186667 1.706667 32.426667 6.826667s17.066667 8.533333 20.48 15.36c5.12 5.12 8.533333 11.946667 10.24 20.48 0 8.533333 1.706667 20.48 1.706666 35.84z m-54.613333-17.066667c0-11.946667 0-18.773333-1.706667-22.186667-1.706667-3.413333-3.413333-5.12-8.533333-5.12-3.413333 0-6.826667 1.706667-8.533333 5.12-1.706667 3.413333-1.706667 10.24-1.706667 20.48v105.813334c0 11.946667 0 20.48 1.706667 22.186666s3.413333 3.413333 8.533333 3.413334 6.826667-1.706667 8.533333-5.12c1.706667-3.413333 1.706667-10.24 1.706667-20.48v-104.106667zM906.24 196.266667v37.546666c0 10.24-1.706667 17.066667-3.413333 22.186667-1.706667 5.12-5.12 8.533333-11.946667 11.946667s-13.653333 5.12-22.186667 5.12c-11.946667 0-20.48-1.706667-25.6-5.12-5.12-3.413333-10.24-6.826667-11.946666-11.946667-1.706667-5.12-3.413333-11.946667-3.413334-20.48v-39.253333c0-10.24 1.706667-18.773333 3.413334-23.893334 1.706667-5.12 6.826667-8.533333 11.946666-11.946666 6.826667-3.413333 13.653333-5.12 23.893334-5.12 10.24 0 18.773333 1.706667 23.893333 5.12 6.826667 3.413333 10.24 8.533333 11.946667 11.946666s3.413333 13.653333 3.413333 23.893334z m-34.133333-8.533334c0-5.12 0-8.533333-1.706667-10.24 0-1.706667-1.706667-1.706667-5.12-1.706666-1.706667 0-3.413333 0-5.12 1.706666 0 1.706667-1.706667 5.12-1.706667 10.24v54.613334c0 6.826667 0 10.24 1.706667 11.946666 0 1.706667 1.706667 1.706667 5.12 1.706667 1.706667 0 3.413333 0 5.12-1.706667s1.706667-5.12 1.706667-10.24V187.733333z m97.28-32.426666l-83.626667 223.573333h-20.48l85.333333-223.573333h18.773334z m37.546666 145.066666v37.546667c0 10.24-1.706667 17.066667-3.413333 22.186667-1.706667 5.12-5.12 8.533333-11.946667 11.946666s-13.653333 5.12-23.893333 5.12c-11.946667 0-20.48-1.706667-25.6-5.12s-10.24-6.826667-11.946667-11.946666c-1.706667-5.12-3.413333-11.946667-3.413333-20.48v-39.253334c0-10.24 1.706667-18.773333 3.413333-23.893333 1.706667-5.12 6.826667-8.533333 11.946667-11.946667 6.826667-3.413333 13.653333-5.12 23.893333-5.12 10.24 0 18.773333 1.706667 25.6 5.12 6.826667 3.413333 10.24 8.533333 11.946667 13.653334 1.706667 5.12 3.413333 11.946667 3.413333 22.186666z m-34.133333-8.533333c0-5.12 0-8.533333-1.706667-10.24 0-1.706667-1.706667-1.706667-5.12-1.706667-1.706667 0-3.413333 0-5.12 1.706667s-1.706667 5.12-1.706666 10.24v54.613333c0 6.826667 0 10.24 1.706666 10.24 0 1.706667 1.706667 1.706667 5.12 1.706667 1.706667 0 3.413333 0 5.12-1.706667 0-1.706667 1.706667-5.12 1.706667-10.24v-54.613333z" fill="#5182E4" p-id="6732"></path></svg>