<svg aria-hidden="true" role="img" viewBox="0 0 1024 1024" xmlns="http://www.w3.org/2000/svg" width="37.07" height="36">
  <path
    d="M138.1 666v-88.5h507.2c-2-6.5-3.4-13.2-4.2-20h-503v-14.5h502.3c0.2-6.7 1.1-13.4 2.6-20H138v-14.5h509.7c9.8-24 25.8-37.6 25.8-37.6H69.7v157.2h603.8c-9.4-10.8-17.1-23-22.8-36.1H138.1zM138.1 766v-14.5h507.2c-2-6.5-3.4-13.2-4.2-20h-503V717h502.3c0.2-6.7 1.1-13.4 2.6-20H138v-14.5h509.7c9.8-24 25.8-37.6 25.8-37.6H69.7v157.2h603.8c-9.4-10.8-17.1-23-22.8-36.1H138.1zM902.5 692.4l-13.4 5.6-194.8-468.3c-5.2 4.3-10.9 8.2-16.8 11.6l193.2 464.4-13.4 5.6-193-463.8c-6.3 2.4-12.8 4.2-19.4 5.3l194 466.2-13.4 5.6L629.7 254c-25.9 0.2-44.6-9.4-44.6-9.4L817 802l145.1-60.4-231.9-557.4c-6.4 12.8-14.7 24.6-24.6 34.9l196.9 473.3z"
    fill="#282727" p-id="8023"></path>
  <path
    d="M644.8 252.6c-5.3 0.8-10.4 1.2-15.3 1.2l195.8 470.7 13.4-5.6-193.9-466.3zM705.6 219.1c-3.7 4-7.5 7.5-11.3 10.7L889.1 698l13.4-5.6-196.9-473.3zM677.5 241.4c-4.4 2.5-8.8 4.5-13.2 6.1l192.9 463.7 13.4-5.6-193.1-464.2z"
    fill="#E02727" p-id="8024"></path>
</svg>