<svg xmlns="http://www.w3.org/2000/svg" viewBox="0 0 1440 320">
  <path fill="#0099ff" fill-opacity="1"
    d="M0,32L24,53.3C48,75,96,117,144,117.3C192,117,240,75,288,80C336,85,384,139,432,154.7C480,171,528,149,576,138.7C624,128,672,128,720,154.7C768,181,816,235,864,229.3C912,224,960,160,1008,117.3C1056,75,1104,53,1152,48C1200,43,1248,53,1296,74.7C1344,96,1392,128,1416,144L1440,160L1440,320L1416,320C1392,320,1344,320,1296,320C1248,320,1200,320,1152,320C1104,320,1056,320,1008,320C960,320,912,320,864,320C816,320,768,320,720,320C672,320,624,320,576,320C528,320,480,320,432,320C384,320,336,320,288,320C240,320,192,320,144,320C96,320,48,320,24,320L0,320Z">
  </path>
</svg>