<?xml version="1.0" standalone="no"?><!DOCTYPE svg PUBLIC "-//W3C//DTD SVG 1.1//EN" "http://www.w3.org/Graphics/SVG/1.1/DTD/svg11.dtd"><svg t="1697443743887" class="icon" viewBox="0 0 1024 1024" version="1.1" xmlns="http://www.w3.org/2000/svg" p-id="5038" xmlns:xlink="http://www.w3.org/1999/xlink" width="300" height="300"><path d="M512 512m-512 0a512 512 0 1 0 1024 0 512 512 0 1 0-1024 0Z" fill="#6AE5E1" p-id="5039"></path><path d="M699.2 440V308L459.2 440V308l-248 136v396.8h728V308z" fill="#415E6D" p-id="5040"></path><path d="M211.2 776h728v64.8h-728z" fill="#324D5B" p-id="5041"></path><path d="M111.2 252.8h92l22.4 588H86.4z" fill="#EAEAEA" p-id="5042"></path><path d="M299.2 512h84v88H299.2z" fill="#FBD000" p-id="5043"></path><path d="M299.2 519.2h84V544H299.2z" fill="#F4B10B" p-id="5044"></path><path d="M540 512H624v88H540zM781.6 512h84v88H781.6zM299.2 664h84v88H299.2z" fill="#FBD000" p-id="5045"></path><path d="M299.2 671.2h84V696H299.2z" fill="#F4B10B" p-id="5046"></path><path d="M540 664H624v88H540z" fill="#FBD000" p-id="5047"></path><path d="M540 519.2H624V544H540zM540 671.2H624V696H540z" fill="#F4B10B" p-id="5048"></path><path d="M781.6 664h84v88H781.6z" fill="#FBD000" p-id="5049"></path><path d="M781.6 519.2h84V544H781.6zM781.6 671.2h84V696H781.6z" fill="#F4B10B" p-id="5050"></path><path d="M944 848.8c-4.8 0-8-3.2-8-8V321.6L708 446.4c-2.4 1.6-5.6 1.6-8 0-2.4-1.6-4-4-4-6.4V321.6L468 446.4c-2.4 1.6-5.6 1.6-8 0-2.4-1.6-4-4-4-6.4V321.6L215.2 451.2c-4 2.4-8.8 0.8-11.2-3.2-2.4-4-0.8-8.8 3.2-11.2l252.8-136c2.4-1.6 5.6-1.6 8 0 2.4 1.6 4 4 4 7.2v118.4l228-124.8c2.4-1.6 5.6-1.6 8 0 2.4 1.6 4 4 4 7.2v118.4l228-124.8c2.4-1.6 5.6-1.6 8 0 2.4 1.6 4 4 4 7.2v532.8c0 2.4-3.2 6.4-8 6.4z" fill="#233E49" p-id="5051"></path><path d="M147.2 252.8h-36l-24.8 588h48.8z" fill="#D3D1D1" p-id="5052"></path><path d="M226.4 856s-0.8 0 0 0H86.4c-2.4 0-4-0.8-5.6-2.4-1.6-1.6-2.4-4-2.4-5.6l24.8-595.2c0-4 4-8 8-8h92c4 0 8 3.2 8 8l22.4 593.6v1.6c0.8 4.8-3.2 8-7.2 8z m-132-16h123.2l-22.4-579.2h-76.8l-24 579.2z" fill="#233E49" p-id="5053"></path><path d="M212 274.4c0 8.8-7.2 16-16 16H113.6c-8.8 0-16-7.2-16-16v-9.6c0-8.8 7.2-16 16-16h81.6c8.8 0 16 7.2 16 16v9.6zM222.4 564.8c0 8.8-7.2 16-16 16H105.6c-8.8 0-16-7.2-16-16v-9.6c0-8.8 7.2-16 16-16h100c8.8 0 16 7.2 16 16v9.6z" fill="#FF4848" p-id="5054"></path><path d="M212 274.4c0 8.8-7.2 16-16 16H113.6c-8.8 0-16-7.2-16-16v-9.6c0-8.8 7.2-16 16-16h81.6c8.8 0 16 7.2 16 16v9.6zM222.4 564.8c0 8.8-7.2 16-16 16H105.6c-8.8 0-16-7.2-16-16v-9.6c0-8.8 7.2-16 16-16h100c8.8 0 16 7.2 16 16v9.6z" fill="#FF4848" p-id="5055"></path><path d="M972.8 856H44c-4.8 0-8-3.2-8-8s3.2-8 8-8h928.8c4.8 0 8 3.2 8 8s-3.2 8-8 8zM200 296H112c-13.6 0-24-10.4-24-24v-16c0-13.6 10.4-24 24-24h88c13.6 0 24 10.4 24 24v16c0 13.6-10.4 24-24 24z m-88-48c-4.8 0-8 3.2-8 8v16c0 4.8 3.2 8 8 8h88c4.8 0 8-3.2 8-8v-16c0-4.8-3.2-8-8-8H112zM208 592H104c-13.6 0-24-10.4-24-24v-16c0-13.6 10.4-24 24-24h104c13.6 0 24 10.4 24 24v16c0 13.6-10.4 24-24 24z m-104-48c-4.8 0-8 3.2-8 8v16c0 4.8 3.2 8 8 8h104c4.8 0 8-3.2 8-8v-16c0-4.8-3.2-8-8-8H104zM384 608H296c-4.8 0-8-3.2-8-8V512c0-4.8 3.2-8 8-8h88c4.8 0 8 3.2 8 8v88c0 4.8-3.2 8-8 8z m-80-16h72v-72h-72v72zM624 608H536c-4.8 0-8-3.2-8-8V512c0-4.8 3.2-8 8-8h88c4.8 0 8 3.2 8 8v88c0 4.8-3.2 8-8 8z m-80-16h72v-72h-72v72zM864 608H776c-4.8 0-8-3.2-8-8V512c0-4.8 3.2-8 8-8h88c4.8 0 8 3.2 8 8v88c0 4.8-3.2 8-8 8z m-80-16h72v-72h-72v72zM383.2 760H296c-4.8 0-8-3.2-8-8V664c0-4.8 3.2-8 8-8h87.2c4.8 0 8 3.2 8 8v88c0 4.8-3.2 8-8 8zM304 744h72v-72h-72v72zM624 760H536c-4.8 0-8-3.2-8-8V664c0-4.8 3.2-8 8-8h88c4.8 0 8 3.2 8 8v88c0 4.8-3.2 8-8 8z m-80-16h72v-72h-72v72zM864 760H776c-4.8 0-8-3.2-8-8V664c0-4.8 3.2-8 8-8h88c4.8 0 8 3.2 8 8v88c0 4.8-3.2 8-8 8z m-80-16h72v-72h-72v72z" fill="#233E49" p-id="5056"></path><path d="M246.4 468c-3.2 0-5.6-1.6-7.2-4-2.4-4-0.8-8.8 3.2-11.2L416 360c4-2.4 8.8-0.8 11.2 3.2 2.4 4 0.8 8.8-3.2 11.2L250.4 467.2c-0.8 0.8-2.4 0.8-4 0.8zM488.8 468c-3.2 0-5.6-1.6-7.2-4-2.4-4-0.8-8.8 3.2-11.2L658.4 360c4-2.4 8.8-0.8 11.2 3.2 2.4 4 0.8 8.8-3.2 11.2L492.8 467.2c-1.6 0.8-2.4 0.8-4 0.8zM731.2 468c-3.2 0-5.6-1.6-7.2-4-2.4-4-0.8-8.8 3.2-11.2L900.8 360c4-2.4 8.8-0.8 11.2 3.2 2.4 4 0.8 8.8-3.2 11.2L735.2 467.2c-1.6 0.8-3.2 0.8-4 0.8zM184 272h-57.6c-4.8 0-8-3.2-8-8s3.2-8 8-8H184c4.8 0 8 3.2 8 8s-3.2 8-8 8zM192.8 568h-66.4c-4.8 0-8-3.2-8-8s3.2-8 8-8h66.4c4.8 0 8 3.2 8 8s-3.2 8-8 8z" fill="#FFFFFF" p-id="5057"></path><path d="M597.6 272c-19.2 0-34.4-15.2-34.4-34.4s15.2-34.4 34.4-34.4 34.4 15.2 34.4 34.4-15.2 34.4-34.4 34.4z m0-52c-10.4 0-18.4 8-18.4 18.4 0 10.4 8 18.4 18.4 18.4 10.4 0 18.4-8 18.4-18.4 0-10.4-8-18.4-18.4-18.4zM378.4 236c0-3.2-3.2-6.4-8-7.2l-15.2-2.4c-4-0.8-8.8-4.8-8.8-8.8l-2.4-15.2c-0.8-4-4-8-7.2-8s-6.4 3.2-7.2 8l-2.4 15.2c-0.8 4-4.8 8.8-8.8 8.8l-15.2 2.4c-4 0.8-8 4-8 7.2s3.2 6.4 8 7.2l15.2 2.4c4 0.8 8.8 4.8 8.8 8.8l2.4 15.2c0.8 4 4 8 7.2 8s6.4-3.2 6.4-8l2.4-16.8c0.8-4 4.8-8 8.8-8.8l14.4-0.8c6.4-1.6 9.6-4 9.6-7.2zM824 215.2c0-3.2-3.2-6.4-8-7.2l-15.2-2.4c-4-0.8-8.8-4.8-8.8-8.8l-2.4-15.2c-0.8-4-4-8-7.2-8s-6.4 3.2-7.2 8l-2.4 15.2c-0.8 4-4.8 8.8-8.8 8.8l-14.4 2.4c-4 0.8-8 4-8 7.2s3.2 6.4 8 7.2l15.2 2.4c4 0.8 8.8 4.8 8.8 8.8L776 248c0.8 4 4 8 7.2 8s6.4-3.2 6.4-8l2.4-16.8c0.8-4 4.8-8 8.8-8.8l14.4-0.8c5.6-0.8 8.8-3.2 8.8-6.4zM648.8 48H376c-8.8 0-16 5.6-16 12.8S352.8 72 344 72H244.8c-41.6 25.6-80 60-112.8 96 4 3.2 7.2 8 7.2 13.6V200c0 8.8 7.2 16 16 16s20-7.2 20-16v-16c0-8.8 2.4-16 11.2-16h75.2c8.8 0 16-9.6 16-18.4 0-8.8-7.2-13.6-16-13.6h-16c-8.8 0-16-8.8-16-16 0-7.2 7.2-16 16-16h144c8.8 0 16-3.2 16-11.2s7.2-12.8 16-12.8h52c8.8 0 16 4.8 16 12s-7.2 13.6-16 13.6H472c-8.8 0-16 7.2-16 16s7.2 14.4 16 14.4h88c8.8 0 16-5.6 16-14.4s-7.2-16-16-16h-17.6c-8.8 0-16-6.4-16-13.6 0-7.2 7.2-12 16-12H648c8.8 0 16-8 16-16.8S657.6 48 648.8 48z" fill="#FFFFFF" p-id="5058"></path></svg>